<?xml version="1.0" encoding="iso-8859-1"?>
<!-- Generator: Adobe Illustrator 16.0.4, SVG Export Plug-In . SVG Version: 6.00 Build 0)  -->
<!DOCTYPE svg PUBLIC "-//W3C//DTD SVG 1.1//EN" "http://www.w3.org/Graphics/SVG/1.1/DTD/svg11.dtd">
<svg version="1.1" id="Capa_1" xmlns="http://www.w3.org/2000/svg" xmlns:xlink="http://www.w3.org/1999/xlink" x="0px" y="0px"
	 width="44.236px" height="44.237px" viewBox="0 0 44.236 44.237" style="enable-background:new 0 0 44.236 44.237;"
	 xml:space="preserve">
<g>
	<path d="M22.118,44.237C9.922,44.237,0,34.315,0,22.119S9.922,0,22.118,0s22.118,9.922,22.118,22.119S34.314,44.237,22.118,44.237z
		 M22.118,1.5C10.749,1.5,1.5,10.75,1.5,22.119s9.249,20.619,20.618,20.619s20.618-9.25,20.618-20.619S33.487,1.5,22.118,1.5z"/>
	<path style="stroke:#272425;stroke-width:1.5;stroke-linecap:round;stroke-linejoin:round;stroke-miterlimit:10;" d="M22.35,26.184
		"/>
	<g>
		<line x1="30.34" y1="29.978" x2="26.118" y2="25.755"/>
		<path d="M30.34,30.728c-0.192,0-0.384-0.073-0.53-0.22l-4.222-4.222c-0.293-0.293-0.293-0.768,0-1.061s0.768-0.293,1.061,0
			l4.222,4.222c0.293,0.293,0.293,0.768,0,1.061C30.724,30.654,30.532,30.728,30.34,30.728z"/>
	</g>
	<path d="M21.118,27.736c-3.849,0-6.98-3.132-6.98-6.981s3.132-6.981,6.98-6.981c3.85,0,6.981,3.132,6.981,6.981
		S24.968,27.736,21.118,27.736z M21.118,15.274c-3.021,0-5.48,2.459-5.48,5.481s2.459,5.481,5.48,5.481
		c3.022,0,5.481-2.459,5.481-5.481S24.141,15.274,21.118,15.274z"/>
</g>
<g>
</g>
<g>
</g>
<g>
</g>
<g>
</g>
<g>
</g>
<g>
</g>
<g>
</g>
<g>
</g>
<g>
</g>
<g>
</g>
<g>
</g>
<g>
</g>
<g>
</g>
<g>
</g>
<g>
</g>
</svg>
